<svg width="70" height="86" viewBox="0 0 70 86" fill="none" xmlns="http://www.w3.org/2000/svg">
<path d="M35 9.51465C53.0164 9.51465 68 25.9679 68 46.7578C67.9998 67.5475 53.0162 84 35 84C16.9838 84 2.00021 67.5475 2 46.7578C2 25.9679 16.9836 9.51465 35 9.51465Z" fill="#242121" stroke="#F0A500" stroke-width="4"/>
<mask id="path-2-outside-1_675_6867" maskUnits="userSpaceOnUse" x="17.625" y="25" width="39" height="39" fill="black">
<rect fill="white" x="17.625" y="25" width="39" height="39"/>
<path d="M36.849 62.576C33.5637 62.576 30.577 61.8293 27.889 60.336C25.2437 58.8427 23.153 56.7307 21.617 54C20.1237 51.2267 19.377 48.0267 19.377 44.4C19.377 40.816 20.145 37.6587 21.681 34.928C23.2597 32.1547 25.393 30.0427 28.081 28.592C30.769 27.0987 33.777 26.352 37.105 26.352C40.433 26.352 43.441 27.0987 46.129 28.592C48.817 30.0427 50.929 32.1333 52.465 34.864C54.0437 37.5947 54.833 40.7733 54.833 44.4C54.833 48.0267 54.0223 51.2267 52.401 54C50.8223 56.7307 48.6677 58.8427 45.937 60.336C43.2063 61.8293 40.177 62.576 36.849 62.576ZM36.849 57.456C38.9397 57.456 40.9023 56.9653 42.737 55.984C44.5717 55.0027 46.0437 53.5307 47.153 51.568C48.305 49.6053 48.881 47.216 48.881 44.4C48.881 41.584 48.3263 39.1947 47.217 37.232C46.1077 35.2693 44.657 33.8187 42.865 32.88C41.073 31.8987 39.1317 31.408 37.041 31.408C34.9077 31.408 32.945 31.8987 31.153 32.88C29.4037 33.8187 27.9957 35.2693 26.929 37.232C25.8623 39.1947 25.329 41.584 25.329 44.4C25.329 47.2587 25.841 49.6693 26.865 51.632C27.9317 53.5947 29.3397 55.0667 31.089 56.048C32.8383 56.9867 34.7583 57.456 36.849 57.456Z"/>
</mask>
<path d="M36.849 62.576C33.5637 62.576 30.577 61.8293 27.889 60.336C25.2437 58.8427 23.153 56.7307 21.617 54C20.1237 51.2267 19.377 48.0267 19.377 44.4C19.377 40.816 20.145 37.6587 21.681 34.928C23.2597 32.1547 25.393 30.0427 28.081 28.592C30.769 27.0987 33.777 26.352 37.105 26.352C40.433 26.352 43.441 27.0987 46.129 28.592C48.817 30.0427 50.929 32.1333 52.465 34.864C54.0437 37.5947 54.833 40.7733 54.833 44.4C54.833 48.0267 54.0223 51.2267 52.401 54C50.8223 56.7307 48.6677 58.8427 45.937 60.336C43.2063 61.8293 40.177 62.576 36.849 62.576ZM36.849 57.456C38.9397 57.456 40.9023 56.9653 42.737 55.984C44.5717 55.0027 46.0437 53.5307 47.153 51.568C48.305 49.6053 48.881 47.216 48.881 44.4C48.881 41.584 48.3263 39.1947 47.217 37.232C46.1077 35.2693 44.657 33.8187 42.865 32.88C41.073 31.8987 39.1317 31.408 37.041 31.408C34.9077 31.408 32.945 31.8987 31.153 32.88C29.4037 33.8187 27.9957 35.2693 26.929 37.232C25.8623 39.1947 25.329 41.584 25.329 44.4C25.329 47.2587 25.841 49.6693 26.865 51.632C27.9317 53.5947 29.3397 55.0667 31.089 56.048C32.8383 56.9867 34.7583 57.456 36.849 57.456Z" fill="#F0A500"/>
<path d="M27.889 60.336L27.3974 61.2068L27.4034 61.2102L27.889 60.336ZM21.617 54L20.7365 54.4741L20.7409 54.4822L20.7454 54.4903L21.617 54ZM21.681 34.928L20.8119 34.4333L20.8094 34.4377L21.681 34.928ZM28.081 28.592L28.556 29.4721L28.5666 29.4662L28.081 28.592ZM46.129 28.592L45.6433 29.4662L45.6541 29.472L46.129 28.592ZM52.465 34.864L51.5934 35.3543L51.5993 35.3645L52.465 34.864ZM52.401 54L51.5377 53.4953L51.5353 53.4995L52.401 54ZM45.937 60.336L46.4168 61.2134V61.2134L45.937 60.336ZM47.153 51.568L46.2906 51.0618L46.2865 51.0688L46.2824 51.0759L47.153 51.568ZM42.865 32.88L42.3847 33.7571L42.3928 33.7615L42.401 33.7658L42.865 32.88ZM31.153 32.88L31.6258 33.7612L31.6333 33.7571L31.153 32.88ZM26.929 37.232L27.8076 37.7095V37.7095L26.929 37.232ZM26.865 51.632L25.9784 52.0946L25.9823 52.1021L25.9864 52.1095L26.865 51.632ZM31.089 56.048L30.5997 56.9201L30.6079 56.9247L30.6162 56.9292L31.089 56.048ZM36.849 62.576V61.576C33.7216 61.576 30.9039 60.867 28.3746 59.4618L27.889 60.336L27.4034 61.2102C30.2501 62.7917 33.4057 63.576 36.849 63.576V62.576ZM27.889 60.336L28.3806 59.4652C25.8995 58.0645 23.938 56.0865 22.4886 53.5097L21.617 54L20.7454 54.4903C22.368 57.3749 24.5879 59.6208 27.3974 61.2068L27.889 60.336ZM21.617 54L22.4975 53.5259C21.0938 50.919 20.377 47.8864 20.377 44.4H19.377H18.377C18.377 48.1669 19.1536 51.5343 20.7365 54.4741L21.617 54ZM19.377 44.4H20.377C20.377 40.9627 21.1123 37.9788 22.5526 35.4183L21.681 34.928L20.8094 34.4377C19.1777 37.3385 18.377 40.6693 18.377 44.4H19.377ZM21.681 34.928L22.5501 35.4227C24.0404 32.8045 26.0404 30.8296 28.5559 29.472L28.081 28.592L27.6061 27.712C24.7456 29.2557 22.4789 31.5048 20.8119 34.4333L21.681 34.928ZM28.081 28.592L28.5666 29.4662C31.094 28.0621 33.9326 27.352 37.105 27.352V26.352V25.352C33.6214 25.352 30.444 26.1353 27.5954 27.7178L28.081 28.592ZM37.105 26.352V27.352C40.2774 27.352 43.116 28.0621 45.6434 29.4662L46.129 28.592L46.6146 27.7178C43.766 26.1353 40.5886 25.352 37.105 25.352V26.352ZM46.129 28.592L45.6541 29.472C48.1712 30.8305 50.1476 32.7839 51.5934 35.3543L52.465 34.864L53.3366 34.3737C51.7104 31.4827 49.4628 29.2549 46.6039 27.712L46.129 28.592ZM52.465 34.864L51.5993 35.3645C53.0775 37.9215 53.833 40.9224 53.833 44.4H54.833H55.833C55.833 40.6243 55.0098 37.2679 53.3307 34.3635L52.465 34.864ZM54.833 44.4H53.833C53.833 47.8726 53.0584 50.8941 51.5377 53.4953L52.401 54L53.2643 54.5047C54.9862 51.5593 55.833 48.1807 55.833 44.4H54.833ZM52.401 54L51.5353 53.4995C50.047 56.0738 48.0249 58.0544 45.4572 59.4586L45.937 60.336L46.4168 61.2134C49.3105 59.6309 51.5977 57.3875 53.2667 54.5005L52.401 54ZM45.937 60.336L45.4572 59.4586C42.8838 60.8659 40.0213 61.576 36.849 61.576V62.576V63.576C40.3327 63.576 43.5289 62.7927 46.4168 61.2134L45.937 60.336ZM36.849 57.456V58.456C39.1034 58.456 41.2282 57.9251 43.2087 56.8658L42.737 55.984L42.2653 55.1022C40.5765 56.0055 38.7759 56.456 36.849 56.456V57.456ZM42.737 55.984L43.2087 56.8658C45.2245 55.7875 46.829 54.1735 48.0236 52.0601L47.153 51.568L46.2824 51.0759C45.2583 52.8879 43.9188 54.2178 42.2653 55.1022L42.737 55.984ZM47.153 51.568L48.0154 52.0742C49.2766 49.9255 49.881 47.352 49.881 44.4H48.881H47.881C47.881 47.08 47.3334 49.2851 46.2906 51.0618L47.153 51.568ZM48.881 44.4H49.881C49.881 41.4539 49.3004 38.8857 48.0876 36.7399L47.217 37.232L46.3464 37.7241C47.3523 39.5036 47.881 41.7141 47.881 44.4H48.881ZM47.217 37.232L48.0876 36.7399C46.8947 34.6295 45.3108 33.0322 43.329 31.9942L42.865 32.88L42.401 33.7658C44.0033 34.6051 45.3207 35.9092 46.3464 37.7241L47.217 37.232ZM42.865 32.88L43.3453 32.0029C41.4025 30.939 39.2955 30.408 37.041 30.408V31.408V32.408C38.9679 32.408 40.7435 32.8583 42.3847 33.7571L42.865 32.88ZM37.041 31.408V30.408C34.7475 30.408 32.6185 30.9373 30.6727 32.0029L31.153 32.88L31.6333 33.7571C33.2715 32.86 35.0679 32.408 37.041 32.408V31.408ZM31.153 32.88L30.6802 31.9988C28.7382 33.0409 27.1981 34.6427 26.0504 36.7545L26.929 37.232L27.8076 37.7095C28.7933 35.8959 30.0691 34.5965 31.6258 33.7612L31.153 32.88ZM26.929 37.232L26.0504 36.7545C24.8859 38.8971 24.329 41.4598 24.329 44.4H25.329H26.329C26.329 41.7082 26.8387 39.4923 27.8076 37.7095L26.929 37.232ZM25.329 44.4H24.329C24.329 47.3742 24.8614 49.9536 25.9784 52.0946L26.865 51.632L27.7516 51.1694C26.8206 49.3851 26.329 47.1431 26.329 44.4H25.329ZM26.865 51.632L25.9864 52.1095C27.1325 54.2184 28.6678 55.8363 30.5997 56.9201L31.089 56.048L31.5783 55.1759C30.0116 54.297 28.7308 52.971 27.7436 51.1545L26.865 51.632ZM31.089 56.048L30.6162 56.9292C32.5187 57.95 34.6024 58.456 36.849 58.456V57.456V56.456C34.9143 56.456 33.158 56.0233 31.5618 55.1668L31.089 56.048Z" fill="#F0A500" mask="url(#path-2-outside-1_675_6867)"/>
<line x1="20.125" y1="66.9707" x2="50.75" y2="66.9707" stroke="#F0A500" stroke-width="8"/>
<rect x="0.715318" y="0.10375" width="10.8693" height="8.31921" transform="matrix(0.81451 -0.580149 0.616125 0.787648 44.1938 31.252)" fill="#F0A500" stroke="#F0A500"/>
</svg>
